<mxfile host="app.diagrams.net" modified="2023-12-02T15:18:57.924Z" agent="Mozilla/5.0 (Windows NT 10.0; Win64; x64) AppleWebKit/537.36 (KHTML, like Gecko) Chrome/119.0.0.0 Safari/537.36" etag="GWhyOh4xSTTZFxb9wDzY" version="22.1.5" type="github">
  <diagram name="Página-1" id="BtlMBZXglGSPShL2KoD3">
    <mxGraphModel dx="2514" dy="944" grid="1" gridSize="10" guides="1" tooltips="1" connect="1" arrows="1" fold="1" page="1" pageScale="1" pageWidth="827" pageHeight="1169" math="0" shadow="0">
      <root>
        <mxCell id="0" />
        <mxCell id="1" parent="0" />
        <mxCell id="H2I2fM9MkL7aGDA8DsEQ-1" value="ADMINISTRAR&amp;nbsp;&lt;br&gt;MUEBLE" style="ellipse;whiteSpace=wrap;html=1;" vertex="1" parent="1">
          <mxGeometry x="100" y="320" width="120" height="80" as="geometry" />
        </mxCell>
        <mxCell id="H2I2fM9MkL7aGDA8DsEQ-2" value="Administrador" style="shape=umlActor;verticalLabelPosition=bottom;verticalAlign=top;html=1;outlineConnect=0;" vertex="1" parent="1">
          <mxGeometry x="-40" y="480" width="30" height="60" as="geometry" />
        </mxCell>
        <mxCell id="H2I2fM9MkL7aGDA8DsEQ-6" value="" style="endArrow=classic;html=1;rounded=0;exitX=1;exitY=0.5;exitDx=0;exitDy=0;entryX=0;entryY=0.5;entryDx=0;entryDy=0;" edge="1" parent="1" source="H2I2fM9MkL7aGDA8DsEQ-1" target="H2I2fM9MkL7aGDA8DsEQ-8">
          <mxGeometry relative="1" as="geometry">
            <mxPoint x="210" y="310" as="sourcePoint" />
            <mxPoint x="280" y="310" as="targetPoint" />
          </mxGeometry>
        </mxCell>
        <mxCell id="H2I2fM9MkL7aGDA8DsEQ-7" value="INCLUDE" style="edgeLabel;resizable=0;html=1;align=center;verticalAlign=middle;" connectable="0" vertex="1" parent="H2I2fM9MkL7aGDA8DsEQ-6">
          <mxGeometry relative="1" as="geometry" />
        </mxCell>
        <mxCell id="H2I2fM9MkL7aGDA8DsEQ-8" value="PISO/LOCAL" style="ellipse;whiteSpace=wrap;html=1;" vertex="1" parent="1">
          <mxGeometry x="320" y="330" width="80" height="60" as="geometry" />
        </mxCell>
        <mxCell id="H2I2fM9MkL7aGDA8DsEQ-23" value="" style="endArrow=classic;html=1;rounded=0;exitX=0.782;exitY=0.973;exitDx=0;exitDy=0;exitPerimeter=0;" edge="1" parent="1" source="H2I2fM9MkL7aGDA8DsEQ-1" target="H2I2fM9MkL7aGDA8DsEQ-25">
          <mxGeometry relative="1" as="geometry">
            <mxPoint x="190" y="410" as="sourcePoint" />
            <mxPoint x="220" y="450" as="targetPoint" />
          </mxGeometry>
        </mxCell>
        <mxCell id="H2I2fM9MkL7aGDA8DsEQ-24" value="INCLUDE" style="edgeLabel;resizable=0;html=1;align=center;verticalAlign=middle;" connectable="0" vertex="1" parent="H2I2fM9MkL7aGDA8DsEQ-23">
          <mxGeometry relative="1" as="geometry" />
        </mxCell>
        <mxCell id="H2I2fM9MkL7aGDA8DsEQ-25" value="BAJA" style="ellipse;whiteSpace=wrap;html=1;" vertex="1" parent="1">
          <mxGeometry x="270" y="410" width="70" height="50" as="geometry" />
        </mxCell>
        <mxCell id="H2I2fM9MkL7aGDA8DsEQ-26" value="" style="endArrow=classic;html=1;rounded=0;" edge="1" parent="1" source="H2I2fM9MkL7aGDA8DsEQ-1" target="H2I2fM9MkL7aGDA8DsEQ-28">
          <mxGeometry relative="1" as="geometry">
            <mxPoint x="180" y="280" as="sourcePoint" />
            <mxPoint x="210" y="260" as="targetPoint" />
          </mxGeometry>
        </mxCell>
        <mxCell id="H2I2fM9MkL7aGDA8DsEQ-27" value="INCLUDE" style="edgeLabel;resizable=0;html=1;align=center;verticalAlign=middle;" connectable="0" vertex="1" parent="H2I2fM9MkL7aGDA8DsEQ-26">
          <mxGeometry relative="1" as="geometry" />
        </mxCell>
        <mxCell id="H2I2fM9MkL7aGDA8DsEQ-28" value="INTRODUCIR&amp;nbsp;&lt;br&gt;NUEVO INMUEBLE" style="ellipse;whiteSpace=wrap;html=1;" vertex="1" parent="1">
          <mxGeometry x="270" y="230" width="120" height="80" as="geometry" />
        </mxCell>
        <mxCell id="H2I2fM9MkL7aGDA8DsEQ-29" value="" style="endArrow=none;html=1;rounded=0;" edge="1" parent="1" target="H2I2fM9MkL7aGDA8DsEQ-1">
          <mxGeometry width="50" height="50" relative="1" as="geometry">
            <mxPoint x="-10" y="520" as="sourcePoint" />
            <mxPoint x="440" y="480" as="targetPoint" />
          </mxGeometry>
        </mxCell>
        <mxCell id="H2I2fM9MkL7aGDA8DsEQ-30" value="" style="endArrow=none;html=1;rounded=0;" edge="1" parent="1">
          <mxGeometry width="50" height="50" relative="1" as="geometry">
            <mxPoint x="-10" y="520" as="sourcePoint" />
            <mxPoint x="150" y="600" as="targetPoint" />
          </mxGeometry>
        </mxCell>
        <mxCell id="H2I2fM9MkL7aGDA8DsEQ-31" value="GESTIONAR&lt;br&gt;APP" style="ellipse;whiteSpace=wrap;html=1;" vertex="1" parent="1">
          <mxGeometry x="150" y="570" width="90" height="70" as="geometry" />
        </mxCell>
        <mxCell id="H2I2fM9MkL7aGDA8DsEQ-32" value="" style="endArrow=classic;html=1;rounded=0;exitX=1;exitY=0;exitDx=0;exitDy=0;entryX=0.006;entryY=0.672;entryDx=0;entryDy=0;entryPerimeter=0;" edge="1" parent="1" source="H2I2fM9MkL7aGDA8DsEQ-31" target="H2I2fM9MkL7aGDA8DsEQ-40">
          <mxGeometry relative="1" as="geometry">
            <mxPoint x="240" y="570" as="sourcePoint" />
            <mxPoint x="300" y="560" as="targetPoint" />
          </mxGeometry>
        </mxCell>
        <mxCell id="H2I2fM9MkL7aGDA8DsEQ-33" value="INCLUDE" style="edgeLabel;resizable=0;html=1;align=center;verticalAlign=middle;" connectable="0" vertex="1" parent="H2I2fM9MkL7aGDA8DsEQ-32">
          <mxGeometry relative="1" as="geometry" />
        </mxCell>
        <mxCell id="H2I2fM9MkL7aGDA8DsEQ-34" value="" style="endArrow=classic;html=1;rounded=0;entryX=0;entryY=0.5;entryDx=0;entryDy=0;exitX=1;exitY=0.5;exitDx=0;exitDy=0;" edge="1" parent="1" source="H2I2fM9MkL7aGDA8DsEQ-31" target="H2I2fM9MkL7aGDA8DsEQ-41">
          <mxGeometry relative="1" as="geometry">
            <mxPoint x="244" y="615" as="sourcePoint" />
            <mxPoint x="320" y="615" as="targetPoint" />
          </mxGeometry>
        </mxCell>
        <mxCell id="H2I2fM9MkL7aGDA8DsEQ-35" value="INCLUDE" style="edgeLabel;resizable=0;html=1;align=center;verticalAlign=middle;" connectable="0" vertex="1" parent="H2I2fM9MkL7aGDA8DsEQ-34">
          <mxGeometry relative="1" as="geometry" />
        </mxCell>
        <mxCell id="H2I2fM9MkL7aGDA8DsEQ-36" value="" style="endArrow=classic;html=1;rounded=0;exitX=1;exitY=1;exitDx=0;exitDy=0;entryX=0;entryY=0;entryDx=0;entryDy=0;" edge="1" parent="1" source="H2I2fM9MkL7aGDA8DsEQ-31" target="H2I2fM9MkL7aGDA8DsEQ-43">
          <mxGeometry relative="1" as="geometry">
            <mxPoint x="320" y="660" as="sourcePoint" />
            <mxPoint x="290" y="660" as="targetPoint" />
          </mxGeometry>
        </mxCell>
        <mxCell id="H2I2fM9MkL7aGDA8DsEQ-37" value="INCLUDE" style="edgeLabel;resizable=0;html=1;align=center;verticalAlign=middle;" connectable="0" vertex="1" parent="H2I2fM9MkL7aGDA8DsEQ-36">
          <mxGeometry relative="1" as="geometry" />
        </mxCell>
        <mxCell id="H2I2fM9MkL7aGDA8DsEQ-40" value="BAJA" style="ellipse;whiteSpace=wrap;html=1;" vertex="1" parent="1">
          <mxGeometry x="300" y="510" width="80" height="60" as="geometry" />
        </mxCell>
        <mxCell id="H2I2fM9MkL7aGDA8DsEQ-41" value="CONSULTAR" style="ellipse;whiteSpace=wrap;html=1;" vertex="1" parent="1">
          <mxGeometry x="330" y="585" width="80" height="60" as="geometry" />
        </mxCell>
        <mxCell id="H2I2fM9MkL7aGDA8DsEQ-43" value="MODIFICAR" style="ellipse;whiteSpace=wrap;html=1;" vertex="1" parent="1">
          <mxGeometry x="270" y="660" width="90" height="70" as="geometry" />
        </mxCell>
        <mxCell id="H2I2fM9MkL7aGDA8DsEQ-44" value="" style="endArrow=none;html=1;rounded=0;" edge="1" parent="1">
          <mxGeometry width="50" height="50" relative="1" as="geometry">
            <mxPoint x="700" y="350" as="sourcePoint" />
            <mxPoint x="840" y="490" as="targetPoint" />
          </mxGeometry>
        </mxCell>
        <mxCell id="H2I2fM9MkL7aGDA8DsEQ-45" value="ALQUILAR" style="ellipse;whiteSpace=wrap;html=1;" vertex="1" parent="1">
          <mxGeometry x="620" y="290" width="90" height="80" as="geometry" />
        </mxCell>
        <mxCell id="H2I2fM9MkL7aGDA8DsEQ-46" value="" style="endArrow=none;html=1;rounded=0;" edge="1" parent="1">
          <mxGeometry width="50" height="50" relative="1" as="geometry">
            <mxPoint x="710" y="590" as="sourcePoint" />
            <mxPoint x="840" y="490" as="targetPoint" />
          </mxGeometry>
        </mxCell>
        <mxCell id="H2I2fM9MkL7aGDA8DsEQ-47" value="ACCESO &lt;br&gt;WEB" style="ellipse;whiteSpace=wrap;html=1;" vertex="1" parent="1">
          <mxGeometry x="640" y="585" width="90" height="70" as="geometry" />
        </mxCell>
        <mxCell id="H2I2fM9MkL7aGDA8DsEQ-48" value="IDENTIFICACIÓN" style="ellipse;whiteSpace=wrap;html=1;" vertex="1" parent="1">
          <mxGeometry x="570" y="450" width="100" height="70" as="geometry" />
        </mxCell>
        <mxCell id="H2I2fM9MkL7aGDA8DsEQ-49" value="" style="endArrow=classic;html=1;rounded=0;exitX=0.5;exitY=0;exitDx=0;exitDy=0;entryX=0.722;entryY=1.005;entryDx=0;entryDy=0;entryPerimeter=0;" edge="1" parent="1" source="H2I2fM9MkL7aGDA8DsEQ-47" target="H2I2fM9MkL7aGDA8DsEQ-48">
          <mxGeometry relative="1" as="geometry">
            <mxPoint x="360" y="500" as="sourcePoint" />
            <mxPoint x="660" y="530" as="targetPoint" />
          </mxGeometry>
        </mxCell>
        <mxCell id="H2I2fM9MkL7aGDA8DsEQ-50" value="INCLUDE" style="edgeLabel;resizable=0;html=1;align=center;verticalAlign=middle;" connectable="0" vertex="1" parent="H2I2fM9MkL7aGDA8DsEQ-49">
          <mxGeometry relative="1" as="geometry" />
        </mxCell>
        <mxCell id="H2I2fM9MkL7aGDA8DsEQ-51" value="" style="endArrow=classic;html=1;rounded=0;entryX=0.978;entryY=0.671;entryDx=0;entryDy=0;entryPerimeter=0;" edge="1" parent="1" source="H2I2fM9MkL7aGDA8DsEQ-47" target="H2I2fM9MkL7aGDA8DsEQ-56">
          <mxGeometry relative="1" as="geometry">
            <mxPoint x="430" y="560" as="sourcePoint" />
            <mxPoint x="570" y="580" as="targetPoint" />
          </mxGeometry>
        </mxCell>
        <mxCell id="H2I2fM9MkL7aGDA8DsEQ-52" value="INCLUDE" style="edgeLabel;resizable=0;html=1;align=center;verticalAlign=middle;" connectable="0" vertex="1" parent="H2I2fM9MkL7aGDA8DsEQ-51">
          <mxGeometry relative="1" as="geometry" />
        </mxCell>
        <mxCell id="H2I2fM9MkL7aGDA8DsEQ-53" value="" style="endArrow=classic;html=1;rounded=0;exitX=0.07;exitY=0.874;exitDx=0;exitDy=0;exitPerimeter=0;entryX=1;entryY=0;entryDx=0;entryDy=0;" edge="1" parent="1" source="H2I2fM9MkL7aGDA8DsEQ-47" target="H2I2fM9MkL7aGDA8DsEQ-55">
          <mxGeometry relative="1" as="geometry">
            <mxPoint x="480" y="660" as="sourcePoint" />
            <mxPoint x="570" y="670" as="targetPoint" />
          </mxGeometry>
        </mxCell>
        <mxCell id="H2I2fM9MkL7aGDA8DsEQ-54" value="INCLUDE" style="edgeLabel;resizable=0;html=1;align=center;verticalAlign=middle;" connectable="0" vertex="1" parent="H2I2fM9MkL7aGDA8DsEQ-53">
          <mxGeometry relative="1" as="geometry" />
        </mxCell>
        <mxCell id="H2I2fM9MkL7aGDA8DsEQ-55" value="CONSULTAR&lt;br&gt;DATOS" style="ellipse;whiteSpace=wrap;html=1;" vertex="1" parent="1">
          <mxGeometry x="480" y="655" width="90" height="70" as="geometry" />
        </mxCell>
        <mxCell id="H2I2fM9MkL7aGDA8DsEQ-56" value="MODIFICAR&lt;br&gt;DATOS" style="ellipse;whiteSpace=wrap;html=1;" vertex="1" parent="1">
          <mxGeometry x="480" y="530" width="90" height="70" as="geometry" />
        </mxCell>
        <mxCell id="H2I2fM9MkL7aGDA8DsEQ-57" value="" style="endArrow=classic;html=1;rounded=0;exitX=0;exitY=1;exitDx=0;exitDy=0;entryX=1;entryY=0;entryDx=0;entryDy=0;" edge="1" parent="1" source="H2I2fM9MkL7aGDA8DsEQ-45" target="H2I2fM9MkL7aGDA8DsEQ-61">
          <mxGeometry relative="1" as="geometry">
            <mxPoint x="488.5" y="320" as="sourcePoint" />
            <mxPoint x="580" y="390" as="targetPoint" />
          </mxGeometry>
        </mxCell>
        <mxCell id="H2I2fM9MkL7aGDA8DsEQ-58" value="INCLUDE" style="edgeLabel;resizable=0;html=1;align=center;verticalAlign=middle;" connectable="0" vertex="1" parent="H2I2fM9MkL7aGDA8DsEQ-57">
          <mxGeometry relative="1" as="geometry" />
        </mxCell>
        <mxCell id="H2I2fM9MkL7aGDA8DsEQ-59" value="" style="endArrow=classic;html=1;rounded=0;exitX=0;exitY=0;exitDx=0;exitDy=0;entryX=0.959;entryY=0.707;entryDx=0;entryDy=0;entryPerimeter=0;" edge="1" parent="1" source="H2I2fM9MkL7aGDA8DsEQ-45" target="H2I2fM9MkL7aGDA8DsEQ-62">
          <mxGeometry relative="1" as="geometry">
            <mxPoint x="540" y="250" as="sourcePoint" />
            <mxPoint x="570" y="270" as="targetPoint" />
          </mxGeometry>
        </mxCell>
        <mxCell id="H2I2fM9MkL7aGDA8DsEQ-60" value="INCLUDE" style="edgeLabel;resizable=0;html=1;align=center;verticalAlign=middle;" connectable="0" vertex="1" parent="H2I2fM9MkL7aGDA8DsEQ-59">
          <mxGeometry relative="1" as="geometry" />
        </mxCell>
        <mxCell id="H2I2fM9MkL7aGDA8DsEQ-61" value="DAR DE&lt;br&gt;BAJA" style="ellipse;whiteSpace=wrap;html=1;" vertex="1" parent="1">
          <mxGeometry x="490" y="380" width="90" height="70" as="geometry" />
        </mxCell>
        <mxCell id="H2I2fM9MkL7aGDA8DsEQ-62" value="DAR DE&lt;br&gt;ALTA" style="ellipse;whiteSpace=wrap;html=1;" vertex="1" parent="1">
          <mxGeometry x="480" y="220" width="90" height="70" as="geometry" />
        </mxCell>
        <mxCell id="H2I2fM9MkL7aGDA8DsEQ-63" value="" style="endArrow=classic;html=1;rounded=0;exitX=1;exitY=0;exitDx=0;exitDy=0;entryX=-0.031;entryY=0.66;entryDx=0;entryDy=0;entryPerimeter=0;" edge="1" parent="1" source="H2I2fM9MkL7aGDA8DsEQ-62" target="H2I2fM9MkL7aGDA8DsEQ-65">
          <mxGeometry relative="1" as="geometry">
            <mxPoint x="360" y="420" as="sourcePoint" />
            <mxPoint x="620" y="200" as="targetPoint" />
          </mxGeometry>
        </mxCell>
        <mxCell id="H2I2fM9MkL7aGDA8DsEQ-64" value="EXTEND" style="edgeLabel;resizable=0;html=1;align=center;verticalAlign=middle;" connectable="0" vertex="1" parent="H2I2fM9MkL7aGDA8DsEQ-63">
          <mxGeometry relative="1" as="geometry" />
        </mxCell>
        <mxCell id="H2I2fM9MkL7aGDA8DsEQ-65" value="SI ES&lt;br&gt;NUEVO" style="ellipse;whiteSpace=wrap;html=1;" vertex="1" parent="1">
          <mxGeometry x="620" y="150" width="90" height="70" as="geometry" />
        </mxCell>
        <mxCell id="H2I2fM9MkL7aGDA8DsEQ-66" value="" style="swimlane;startSize=0;" vertex="1" parent="1">
          <mxGeometry x="-140" y="30" width="1080" height="870" as="geometry" />
        </mxCell>
        <mxCell id="H2I2fM9MkL7aGDA8DsEQ-4" value="Inquilino&lt;br&gt;" style="shape=umlActor;verticalLabelPosition=bottom;verticalAlign=top;html=1;outlineConnect=0;" vertex="1" parent="H2I2fM9MkL7aGDA8DsEQ-66">
          <mxGeometry x="990" y="430" width="30" height="60" as="geometry" />
        </mxCell>
        <mxCell id="H2I2fM9MkL7aGDA8DsEQ-67" value="Sistema de Gestión de Inmuebles" style="swimlane;whiteSpace=wrap;html=1;align=left;" vertex="1" parent="H2I2fM9MkL7aGDA8DsEQ-66">
          <mxGeometry x="160" y="85" width="800" height="640" as="geometry" />
        </mxCell>
      </root>
    </mxGraphModel>
  </diagram>
</mxfile>
